<?xml version="1.0" encoding="utf-8" standalone="no"?>
<!DOCTYPE svg PUBLIC "-//W3C//DTD SVG 1.1//EN"
  "http://www.w3.org/Graphics/SVG/1.1/DTD/svg11.dtd">
<svg xmlns:xlink="http://www.w3.org/1999/xlink" width="460.8pt" height="345.6pt" viewBox="0 0 460.8 345.6" xmlns="http://www.w3.org/2000/svg" version="1.1">
 <metadata>
  <rdf:RDF xmlns:dc="http://purl.org/dc/elements/1.1/" xmlns:cc="http://creativecommons.org/ns#" xmlns:rdf="http://www.w3.org/1999/02/22-rdf-syntax-ns#">
   <cc:Work>
    <dc:type rdf:resource="http://purl.org/dc/dcmitype/StillImage"/>
    <dc:date>2024-11-02T09:47:53.158397</dc:date>
    <dc:format>image/svg+xml</dc:format>
    <dc:creator>
     <cc:Agent>
      <dc:title>Matplotlib v3.6.3, https://matplotlib.org/</dc:title>
     </cc:Agent>
    </dc:creator>
   </cc:Work>
  </rdf:RDF>
 </metadata>
 <defs>
  <style type="text/css">*{stroke-linejoin: round; stroke-linecap: butt}</style>
 </defs>
 <g id="figure_1">
  <g id="patch_1">
   <path d="M 0 345.6 
L 460.8 345.6 
L 460.8 0 
L 0 0 
z
" style="fill: #ffffff"/>
  </g>
  <g id="axes_1">
   <g id="patch_2">
    <path d="M 57.6 307.584 
L 414.72 307.584 
L 414.72 41.472 
L 57.6 41.472 
z
" style="fill: #ffffff"/>
   </g>
   <g id="matplotlib.axis_1">
    <g id="xtick_1">
     <g id="line2d_1">
      <defs>
       <path id="m65bef8eae2" d="M 0 0 
L 0 3.5 
" style="stroke: #000000; stroke-width: 0.8"/>
      </defs>
      <g>
       <use xlink:href="#m65bef8eae2" x="71.245606" y="307.584" style="stroke: #000000; stroke-width: 0.8"/>
      </g>
     </g>
     <g id="text_1">
      <!-- $\mathdefault{0}$ -->
      <g transform="translate(68.754939 321.502498) scale(0.1 -0.1)">
       <defs>
        <path id="CMR17-30" d="M 2688 2038 
C 2688 2430 2682 3099 2413 3613 
C 2176 4063 1798 4224 1466 4224 
C 1158 4224 768 4082 525 3620 
C 269 3137 243 2539 243 2038 
C 243 1671 250 1112 448 623 
C 723 -39 1216 -128 1466 -128 
C 1760 -128 2208 -7 2470 604 
C 2662 1048 2688 1568 2688 2038 
z
M 1466 -26 
C 1056 -26 813 328 723 816 
C 653 1196 653 1749 653 2109 
C 653 2604 653 3015 736 3407 
C 858 3954 1216 4121 1466 4121 
C 1728 4121 2067 3947 2189 3420 
C 2272 3054 2278 2623 2278 2109 
C 2278 1691 2278 1176 2202 797 
C 2067 96 1690 -26 1466 -26 
z
" transform="scale(0.015625)"/>
       </defs>
       <use xlink:href="#CMR17-30" transform="scale(0.996264)"/>
      </g>
     </g>
    </g>
    <g id="xtick_2">
     <g id="line2d_2">
      <g>
       <use xlink:href="#m65bef8eae2" x="122.354278" y="307.584" style="stroke: #000000; stroke-width: 0.8"/>
      </g>
     </g>
     <g id="text_2">
      <!-- $\mathdefault{500}$ -->
      <g transform="translate(114.882275 321.502498) scale(0.1 -0.1)">
       <defs>
        <path id="CMR17-35" d="M 730 3750 
C 794 3724 1056 3641 1325 3641 
C 1920 3641 2246 3961 2432 4140 
C 2432 4191 2432 4224 2394 4224 
C 2387 4224 2374 4224 2323 4198 
C 2099 4102 1837 4032 1517 4032 
C 1325 4032 1037 4055 723 4191 
C 653 4224 640 4224 634 4224 
C 602 4224 595 4217 595 4090 
L 595 2231 
C 595 2113 595 2080 659 2080 
C 691 2080 704 2093 736 2139 
C 941 2435 1222 2560 1542 2560 
C 1766 2560 2246 2415 2246 1293 
C 2246 1087 2246 716 2054 422 
C 1894 159 1645 25 1370 25 
C 947 25 518 319 403 812 
C 429 806 480 793 506 793 
C 589 793 749 838 749 1036 
C 749 1209 627 1280 506 1280 
C 358 1280 262 1190 262 1011 
C 262 454 704 -128 1382 -128 
C 2042 -128 2669 441 2669 1267 
C 2669 2054 2170 2662 1549 2662 
C 1222 2662 947 2540 730 2304 
L 730 3750 
z
" transform="scale(0.015625)"/>
       </defs>
       <use xlink:href="#CMR17-35" transform="scale(0.996264)"/>
       <use xlink:href="#CMR17-30" transform="translate(45.690477 0) scale(0.996264)"/>
       <use xlink:href="#CMR17-30" transform="translate(91.380954 0) scale(0.996264)"/>
      </g>
     </g>
    </g>
    <g id="xtick_3">
     <g id="line2d_3">
      <g>
       <use xlink:href="#m65bef8eae2" x="173.462949" y="307.584" style="stroke: #000000; stroke-width: 0.8"/>
      </g>
     </g>
     <g id="text_3">
      <!-- $\mathdefault{1000}$ -->
      <g transform="translate(163.500278 321.502498) scale(0.1 -0.1)">
       <defs>
        <path id="CMR17-31" d="M 1702 4083 
C 1702 4217 1696 4224 1606 4224 
C 1357 3927 979 3833 621 3820 
C 602 3820 570 3820 563 3808 
C 557 3795 557 3782 557 3648 
C 755 3648 1088 3686 1344 3839 
L 1344 467 
C 1344 243 1331 166 781 166 
L 589 166 
L 589 0 
C 896 6 1216 12 1523 12 
C 1830 12 2150 6 2458 0 
L 2458 166 
L 2266 166 
C 1715 166 1702 236 1702 467 
L 1702 4083 
z
" transform="scale(0.015625)"/>
       </defs>
       <use xlink:href="#CMR17-31" transform="scale(0.996264)"/>
       <use xlink:href="#CMR17-30" transform="translate(45.690477 0) scale(0.996264)"/>
       <use xlink:href="#CMR17-30" transform="translate(91.380954 0) scale(0.996264)"/>
       <use xlink:href="#CMR17-30" transform="translate(137.071431 0) scale(0.996264)"/>
      </g>
     </g>
    </g>
    <g id="xtick_4">
     <g id="line2d_4">
      <g>
       <use xlink:href="#m65bef8eae2" x="224.57162" y="307.584" style="stroke: #000000; stroke-width: 0.8"/>
      </g>
     </g>
     <g id="text_4">
      <!-- $\mathdefault{1500}$ -->
      <g transform="translate(214.608949 321.502498) scale(0.1 -0.1)">
       <use xlink:href="#CMR17-31" transform="scale(0.996264)"/>
       <use xlink:href="#CMR17-35" transform="translate(45.690477 0) scale(0.996264)"/>
       <use xlink:href="#CMR17-30" transform="translate(91.380954 0) scale(0.996264)"/>
       <use xlink:href="#CMR17-30" transform="translate(137.071431 0) scale(0.996264)"/>
      </g>
     </g>
    </g>
    <g id="xtick_5">
     <g id="line2d_5">
      <g>
       <use xlink:href="#m65bef8eae2" x="275.680291" y="307.584" style="stroke: #000000; stroke-width: 0.8"/>
      </g>
     </g>
     <g id="text_5">
      <!-- $\mathdefault{2000}$ -->
      <g transform="translate(265.717621 321.502498) scale(0.1 -0.1)">
       <defs>
        <path id="CMR17-32" d="M 2669 990 
L 2554 990 
C 2490 537 2438 460 2413 422 
C 2381 371 1920 371 1830 371 
L 602 371 
C 832 620 1280 1073 1824 1596 
C 2214 1966 2669 2400 2669 3033 
C 2669 3788 2067 4224 1395 4224 
C 691 4224 262 3603 262 3027 
C 262 2777 448 2745 525 2745 
C 589 2745 781 2783 781 3007 
C 781 3206 614 3264 525 3264 
C 486 3264 448 3257 422 3244 
C 544 3788 915 4057 1306 4057 
C 1862 4057 2227 3616 2227 3033 
C 2227 2477 1901 1998 1536 1583 
L 262 147 
L 262 0 
L 2515 0 
L 2669 990 
z
" transform="scale(0.015625)"/>
       </defs>
       <use xlink:href="#CMR17-32" transform="scale(0.996264)"/>
       <use xlink:href="#CMR17-30" transform="translate(45.690477 0) scale(0.996264)"/>
       <use xlink:href="#CMR17-30" transform="translate(91.380954 0) scale(0.996264)"/>
       <use xlink:href="#CMR17-30" transform="translate(137.071431 0) scale(0.996264)"/>
      </g>
     </g>
    </g>
    <g id="xtick_6">
     <g id="line2d_6">
      <g>
       <use xlink:href="#m65bef8eae2" x="326.788962" y="307.584" style="stroke: #000000; stroke-width: 0.8"/>
      </g>
     </g>
     <g id="text_6">
      <!-- $\mathdefault{2500}$ -->
      <g transform="translate(316.826292 321.502498) scale(0.1 -0.1)">
       <use xlink:href="#CMR17-32" transform="scale(0.996264)"/>
       <use xlink:href="#CMR17-35" transform="translate(45.690477 0) scale(0.996264)"/>
       <use xlink:href="#CMR17-30" transform="translate(91.380954 0) scale(0.996264)"/>
       <use xlink:href="#CMR17-30" transform="translate(137.071431 0) scale(0.996264)"/>
      </g>
     </g>
    </g>
    <g id="xtick_7">
     <g id="line2d_7">
      <g>
       <use xlink:href="#m65bef8eae2" x="377.897633" y="307.584" style="stroke: #000000; stroke-width: 0.8"/>
      </g>
     </g>
     <g id="text_7">
      <!-- $\mathdefault{3000}$ -->
      <g transform="translate(367.934963 321.502498) scale(0.1 -0.1)">
       <defs>
        <path id="CMR17-33" d="M 1414 2176 
C 1984 2176 2234 1673 2234 1094 
C 2234 322 1824 25 1453 25 
C 1114 25 563 193 390 691 
C 422 678 454 678 486 678 
C 640 678 755 780 755 947 
C 755 1132 614 1216 486 1216 
C 378 1216 211 1164 211 927 
C 211 335 787 -128 1466 -128 
C 2176 -128 2720 432 2720 1087 
C 2720 1718 2208 2176 1600 2246 
C 2086 2347 2554 2776 2554 3353 
C 2554 3856 2048 4224 1472 4224 
C 890 4224 378 3862 378 3347 
C 378 3123 544 3084 627 3084 
C 762 3084 877 3167 877 3334 
C 877 3500 762 3584 627 3584 
C 602 3584 570 3584 544 3571 
C 730 3999 1235 4076 1459 4076 
C 1683 4076 2106 3966 2106 3347 
C 2106 3167 2080 2851 1862 2574 
C 1670 2329 1453 2316 1242 2297 
C 1210 2297 1062 2284 1037 2284 
C 992 2278 966 2272 966 2227 
C 966 2182 973 2176 1101 2176 
L 1414 2176 
z
" transform="scale(0.015625)"/>
       </defs>
       <use xlink:href="#CMR17-33" transform="scale(0.996264)"/>
       <use xlink:href="#CMR17-30" transform="translate(45.690477 0) scale(0.996264)"/>
       <use xlink:href="#CMR17-30" transform="translate(91.380954 0) scale(0.996264)"/>
       <use xlink:href="#CMR17-30" transform="translate(137.071431 0) scale(0.996264)"/>
      </g>
     </g>
    </g>
    <g id="text_8">
     <!-- Time [s] -->
     <g transform="translate(218.420941 334.911657) scale(0.1 -0.1)">
      <defs>
       <path id="CMR17-54" d="M 3981 4332 
L 288 4332 
L 179 2924 
L 294 2924 
C 378 3981 467 4166 1453 4166 
C 1568 4166 1754 4166 1805 4159 
C 1926 4140 1926 4064 1926 3917 
L 1926 465 
C 1926 236 1907 166 1376 166 
L 1197 166 
L 1197 0 
C 1504 6 1824 12 2138 12 
C 2451 12 2771 6 3078 0 
L 3078 166 
L 2899 166 
C 2368 166 2349 236 2349 465 
L 2349 3917 
C 2349 4057 2349 4134 2464 4159 
C 2515 4166 2701 4166 2816 4166 
C 3795 4166 3891 3981 3974 2924 
L 4090 2924 
L 3981 4332 
z
" transform="scale(0.015625)"/>
       <path id="CMR17-69" d="M 992 3961 
C 992 4102 877 4224 730 4224 
C 589 4224 467 4108 467 3961 
C 467 3820 582 3699 730 3699 
C 870 3699 992 3814 992 3961 
z
M 243 2745 
L 243 2579 
C 602 2579 653 2540 653 2231 
L 653 443 
C 653 198 627 166 218 166 
L 218 0 
C 371 12 646 12 806 12 
C 960 12 1222 12 1370 0 
L 1370 166 
C 992 166 979 205 979 436 
L 979 2816 
L 243 2745 
z
" transform="scale(0.015625)"/>
       <path id="CMR17-6d" d="M 4326 1954 
C 4326 2276 4269 2816 3507 2816 
C 3072 2816 2771 2520 2656 2173 
L 2650 2173 
C 2573 2700 2195 2816 1837 2816 
C 1331 2816 1069 2424 973 2166 
L 966 2166 
L 966 2816 
L 211 2745 
L 211 2578 
C 589 2578 646 2540 646 2231 
L 646 443 
C 646 198 621 166 211 166 
L 211 0 
C 365 12 646 12 813 12 
C 979 12 1267 12 1421 0 
L 1421 166 
C 1011 166 986 192 986 443 
L 986 1678 
C 986 2269 1344 2713 1792 2713 
C 2266 2713 2317 2289 2317 1980 
L 2317 443 
C 2317 198 2291 166 1882 166 
L 1882 0 
C 2035 12 2317 12 2483 12 
C 2650 12 2938 12 3091 0 
L 3091 166 
C 2682 166 2656 192 2656 443 
L 2656 1678 
C 2656 2269 3014 2713 3462 2713 
C 3936 2713 3987 2289 3987 1980 
L 3987 443 
C 3987 198 3962 166 3552 166 
L 3552 0 
C 3706 12 3987 12 4154 12 
C 4320 12 4608 12 4762 0 
L 4762 166 
C 4352 166 4326 192 4326 443 
L 4326 1954 
z
" transform="scale(0.015625)"/>
       <path id="CMR17-65" d="M 2438 1503 
C 2464 1529 2464 1542 2464 1606 
C 2464 2251 2118 2816 1389 2816 
C 710 2816 173 2175 173 1394 
C 173 554 781 -64 1459 -64 
C 2176 -64 2458 619 2458 755 
C 2458 800 2419 800 2406 800 
C 2362 800 2355 787 2330 709 
C 2189 270 1837 51 1504 51 
C 1229 51 954 206 781 490 
C 582 819 582 1200 582 1503 
L 2438 1503 
z
M 589 1600 
C 634 2511 1126 2713 1382 2713 
C 1818 2713 2112 2308 2118 1600 
L 589 1600 
z
" transform="scale(0.015625)"/>
       <path id="CMR17-5b" d="M 1504 -1600 
L 1504 -1376 
L 902 -1376 
L 902 4575 
L 1504 4575 
L 1504 4800 
L 678 4800 
L 678 -1600 
L 1504 -1600 
z
" transform="scale(0.015625)"/>
       <path id="CMR17-73" d="M 1978 2688 
C 1978 2803 1971 2809 1933 2809 
C 1907 2809 1901 2803 1824 2707 
C 1805 2681 1747 2617 1728 2592 
C 1523 2809 1235 2816 1126 2816 
C 416 2816 160 2444 160 2073 
C 160 1497 813 1363 998 1324 
C 1402 1241 1542 1216 1677 1100 
C 1760 1024 1901 883 1901 652 
C 1901 384 1747 38 1158 38 
C 602 38 403 460 288 1024 
C 269 1113 269 1120 218 1120 
C 166 1120 160 1113 160 985 
L 160 64 
C 160 -52 166 -58 205 -58 
C 237 -58 243 -52 275 0 
C 314 57 410 211 448 275 
C 576 102 800 -64 1158 -64 
C 1792 -64 2131 281 2131 780 
C 2131 1107 1958 1280 1875 1356 
C 1683 1555 1459 1600 1190 1651 
C 838 1728 390 1817 390 2208 
C 390 2374 480 2726 1126 2726 
C 1811 2726 1850 2086 1862 1881 
C 1869 1849 1901 1843 1920 1843 
C 1978 1843 1978 1862 1978 1971 
L 1978 2688 
z
" transform="scale(0.015625)"/>
       <path id="CMR17-5d" d="M 915 4800 
L 90 4800 
L 90 4575 
L 691 4575 
L 691 -1376 
L 90 -1376 
L 90 -1600 
L 915 -1600 
L 915 4800 
z
" transform="scale(0.015625)"/>
      </defs>
      <use xlink:href="#CMR17-54" transform="scale(0.996264)"/>
      <use xlink:href="#CMR17-69" transform="translate(66.509881 0) scale(0.996264)"/>
      <use xlink:href="#CMR17-6d" transform="translate(91.380939 0) scale(0.996264)"/>
      <use xlink:href="#CMR17-65" transform="translate(168.300529 0) scale(0.996264)"/>
      <use xlink:href="#CMR17-5b" transform="translate(238.862156 0) scale(0.996264)"/>
      <use xlink:href="#CMR17-73" transform="translate(263.733214 0) scale(0.996264)"/>
      <use xlink:href="#CMR17-5d" transform="translate(299.534552 0) scale(0.996264)"/>
     </g>
    </g>
   </g>
   <g id="matplotlib.axis_2">
    <g id="ytick_1">
     <g id="line2d_8">
      <defs>
       <path id="m173dd2d85c" d="M 0 0 
L -3.5 0 
" style="stroke: #000000; stroke-width: 0.8"/>
      </defs>
      <g>
       <use xlink:href="#m173dd2d85c" x="57.6" y="273.254106" style="stroke: #000000; stroke-width: 0.8"/>
      </g>
     </g>
     <g id="text_9">
      <!-- $\mathdefault{200}$ -->
      <g transform="translate(35.655994 276.713356) scale(0.1 -0.1)">
       <use xlink:href="#CMR17-32" transform="scale(0.996264)"/>
       <use xlink:href="#CMR17-30" transform="translate(45.690477 0) scale(0.996264)"/>
       <use xlink:href="#CMR17-30" transform="translate(91.380954 0) scale(0.996264)"/>
      </g>
     </g>
    </g>
    <g id="ytick_2">
     <g id="line2d_9">
      <g>
       <use xlink:href="#m173dd2d85c" x="57.6" y="233.487525" style="stroke: #000000; stroke-width: 0.8"/>
      </g>
     </g>
     <g id="text_10">
      <!-- $\mathdefault{300}$ -->
      <g transform="translate(35.655994 236.946774) scale(0.1 -0.1)">
       <use xlink:href="#CMR17-33" transform="scale(0.996264)"/>
       <use xlink:href="#CMR17-30" transform="translate(45.690477 0) scale(0.996264)"/>
       <use xlink:href="#CMR17-30" transform="translate(91.380954 0) scale(0.996264)"/>
      </g>
     </g>
    </g>
    <g id="ytick_3">
     <g id="line2d_10">
      <g>
       <use xlink:href="#m173dd2d85c" x="57.6" y="193.720943" style="stroke: #000000; stroke-width: 0.8"/>
      </g>
     </g>
     <g id="text_11">
      <!-- $\mathdefault{400}$ -->
      <g transform="translate(35.655994 197.180192) scale(0.1 -0.1)">
       <defs>
        <path id="CMR17-34" d="M 2150 4147 
C 2150 4281 2144 4288 2029 4288 
L 128 1254 
L 128 1088 
L 1779 1088 
L 1779 460 
C 1779 230 1766 166 1318 166 
L 1197 166 
L 1197 0 
C 1402 12 1747 12 1965 12 
C 2182 12 2528 12 2733 0 
L 2733 166 
L 2611 166 
C 2163 166 2150 230 2150 460 
L 2150 1088 
L 2803 1088 
L 2803 1254 
L 2150 1254 
L 2150 4147 
z
M 1798 3723 
L 1798 1254 
L 256 1254 
L 1798 3723 
z
" transform="scale(0.015625)"/>
       </defs>
       <use xlink:href="#CMR17-34" transform="scale(0.996264)"/>
       <use xlink:href="#CMR17-30" transform="translate(45.690477 0) scale(0.996264)"/>
       <use xlink:href="#CMR17-30" transform="translate(91.380954 0) scale(0.996264)"/>
      </g>
     </g>
    </g>
    <g id="ytick_4">
     <g id="line2d_11">
      <g>
       <use xlink:href="#m173dd2d85c" x="57.6" y="153.954361" style="stroke: #000000; stroke-width: 0.8"/>
      </g>
     </g>
     <g id="text_12">
      <!-- $\mathdefault{500}$ -->
      <g transform="translate(35.655994 157.41361) scale(0.1 -0.1)">
       <use xlink:href="#CMR17-35" transform="scale(0.996264)"/>
       <use xlink:href="#CMR17-30" transform="translate(45.690477 0) scale(0.996264)"/>
       <use xlink:href="#CMR17-30" transform="translate(91.380954 0) scale(0.996264)"/>
      </g>
     </g>
    </g>
    <g id="ytick_5">
     <g id="line2d_12">
      <g>
       <use xlink:href="#m173dd2d85c" x="57.6" y="114.18778" style="stroke: #000000; stroke-width: 0.8"/>
      </g>
     </g>
     <g id="text_13">
      <!-- $\mathdefault{600}$ -->
      <g transform="translate(35.655994 117.647029) scale(0.1 -0.1)">
       <defs>
        <path id="CMR17-36" d="M 678 2198 
C 678 3712 1395 4076 1811 4076 
C 1946 4076 2272 4049 2400 3782 
C 2298 3782 2106 3782 2106 3558 
C 2106 3385 2246 3328 2336 3328 
C 2394 3328 2566 3353 2566 3571 
C 2566 3987 2246 4224 1805 4224 
C 1043 4224 243 3411 243 2011 
C 243 257 966 -128 1478 -128 
C 2099 -128 2688 431 2688 1295 
C 2688 2101 2170 2688 1517 2688 
C 1126 2688 838 2430 678 1979 
L 678 2198 
z
M 1478 25 
C 691 25 691 1212 691 1450 
C 691 1914 909 2585 1504 2585 
C 1613 2585 1926 2585 2138 2140 
C 2253 1889 2253 1624 2253 1302 
C 2253 954 2253 696 2118 438 
C 1978 173 1773 25 1478 25 
z
" transform="scale(0.015625)"/>
       </defs>
       <use xlink:href="#CMR17-36" transform="scale(0.996264)"/>
       <use xlink:href="#CMR17-30" transform="translate(45.690477 0) scale(0.996264)"/>
       <use xlink:href="#CMR17-30" transform="translate(91.380954 0) scale(0.996264)"/>
      </g>
     </g>
    </g>
    <g id="ytick_6">
     <g id="line2d_13">
      <g>
       <use xlink:href="#m173dd2d85c" x="57.6" y="74.421198" style="stroke: #000000; stroke-width: 0.8"/>
      </g>
     </g>
     <g id="text_14">
      <!-- $\mathdefault{700}$ -->
      <g transform="translate(35.655994 77.880447) scale(0.1 -0.1)">
       <defs>
        <path id="CMR17-37" d="M 2886 3955 
L 2886 4096 
L 1382 4096 
C 634 4096 621 4166 595 4288 
L 480 4288 
L 294 3104 
L 410 3104 
C 429 3226 474 3552 550 3673 
C 589 3724 1062 3724 1171 3724 
L 2579 3724 
L 1869 2670 
C 1395 1961 1069 1003 1069 166 
C 1069 89 1069 -128 1299 -128 
C 1530 -128 1530 89 1530 172 
L 1530 466 
C 1530 1514 1709 2204 2003 2644 
L 2886 3955 
z
" transform="scale(0.015625)"/>
       </defs>
       <use xlink:href="#CMR17-37" transform="scale(0.996264)"/>
       <use xlink:href="#CMR17-30" transform="translate(45.690477 0) scale(0.996264)"/>
       <use xlink:href="#CMR17-30" transform="translate(91.380954 0) scale(0.996264)"/>
      </g>
     </g>
    </g>
    <g id="text_15">
     <!-- Area [mm]$^2$ -->
     <g transform="translate(29.165334 199.635294) rotate(-90) scale(0.1 -0.1)">
      <defs>
       <path id="CMR17-41" d="M 2323 4441 
C 2291 4524 2278 4544 2214 4544 
C 2150 4544 2138 4524 2106 4441 
L 749 580 
C 627 236 371 166 147 166 
L 147 0 
C 262 12 518 12 640 12 
C 800 12 1056 12 1210 0 
L 1210 166 
C 909 179 864 382 864 459 
C 864 516 877 548 890 586 
L 1229 1536 
L 2906 1536 
L 3290 453 
C 3322 376 3322 363 3322 338 
C 3322 166 3046 166 2925 166 
L 2925 0 
C 3110 12 3443 12 3642 12 
C 3808 12 4128 12 4282 0 
L 4282 166 
C 3942 166 3827 166 3744 402 
L 2323 4441 
z
M 2067 3924 
L 2848 1702 
L 1286 1702 
L 2067 3924 
z
" transform="scale(0.015625)"/>
       <path id="CMR17-72" d="M 960 1517 
C 960 2134 1222 2713 1702 2713 
C 1747 2713 1792 2707 1837 2687 
C 1837 2687 1696 2642 1696 2475 
C 1696 2321 1818 2257 1914 2257 
C 1990 2257 2131 2302 2131 2482 
C 2131 2687 1926 2816 1709 2816 
C 1222 2816 1011 2340 947 2115 
L 941 2115 
L 941 2816 
L 198 2745 
L 198 2578 
C 576 2578 634 2540 634 2231 
L 634 443 
C 634 198 608 166 198 166 
L 198 0 
C 352 12 646 12 813 12 
C 998 12 1325 12 1498 0 
L 1498 166 
C 1037 166 960 166 960 455 
L 960 1517 
z
" transform="scale(0.015625)"/>
       <path id="CMR17-61" d="M 2304 1656 
C 2304 2048 2304 2275 2035 2534 
C 1798 2751 1523 2816 1306 2816 
C 800 2816 435 2408 435 1977 
C 435 1740 627 1728 666 1728 
C 749 1728 896 1779 896 1958 
C 896 2118 774 2188 666 2188 
C 640 2188 608 2182 589 2176 
C 723 2594 1069 2713 1293 2713 
C 1613 2713 1965 2421 1965 1875 
L 1965 1632 
C 1587 1619 1133 1568 774 1373 
C 371 1147 256 822 256 576 
C 256 77 832 -64 1171 -64 
C 1523 -64 1850 135 1990 505 
C 2003 219 2182 -39 2464 -39 
C 2598 -39 2938 51 2938 563 
L 2938 926 
L 2822 926 
L 2822 557 
C 2822 161 2650 109 2566 109 
C 2304 109 2304 446 2304 732 
L 2304 1656 
z
M 1965 887 
C 1965 323 1568 38 1216 38 
C 896 38 646 278 646 576 
C 646 771 730 1114 1101 1322 
C 1408 1497 1760 1523 1965 1536 
L 1965 887 
z
" transform="scale(0.015625)"/>
      </defs>
      <use xlink:href="#CMR17-41" transform="scale(0.996264)"/>
      <use xlink:href="#CMR17-72" transform="translate(69.07243 0) scale(0.996264)"/>
      <use xlink:href="#CMR17-65" transform="translate(104.353198 0) scale(0.996264)"/>
      <use xlink:href="#CMR17-61" transform="translate(144.838858 0) scale(0.996264)"/>
      <use xlink:href="#CMR17-5b" transform="translate(220.605302 0) scale(0.996264)"/>
      <use xlink:href="#CMR17-6d" transform="translate(245.47636 0) scale(0.996264)"/>
      <use xlink:href="#CMR17-6d" transform="translate(322.39595 0) scale(0.996264)"/>
      <use xlink:href="#CMR17-5d" transform="translate(399.31554 0) scale(0.996264)"/>
      <use xlink:href="#CMR17-32" transform="translate(424.186598 36.153639) scale(0.697382)"/>
     </g>
    </g>
   </g>
   <g id="line2d_14">
    <path d="M 75.384387 283.935808 
L 76.660059 283.831222 
L 77.223277 283.775549 
L 79.053989 283.885304 
L 79.843107 284.052722 
L 84.713763 284.162478 
L 87.271241 284.238034 
L 93.358284 284.34779 
L 95.089846 284.371252 
L 102.171463 284.481008 
L 104.4366 284.516798 
L 113.323375 284.626554 
L 115.035516 284.650016 
L 121.807415 284.759772 
L 123.749544 284.799538 
L 128.834857 284.907306 
L 129.959248 284.95423 
L 132.284692 284.988429 
L 138.622168 285.098185 
L 141.815437 285.186467 
L 147.923946 285.296223 
L 150.199304 285.326843 
L 156.714637 285.436599 
L 157.762365 285.472389 
L 164.585373 285.582144 
L 166.680828 285.634239 
L 174.244911 285.743994 
L 176.135932 285.780182 
L 183.163375 285.889938 
L 185.514373 285.925728 
L 193.001794 286.035484 
L 194.68838 286.055367 
L 200.386997 286.163532 
L 201.408148 286.195743 
L 207.567765 286.305499 
L 209.356568 286.334131 
L 217.072956 286.443886 
L 219.040639 286.485641 
L 226.784625 286.595397 
L 228.956744 286.62045 
L 236.214175 286.730206 
L 238.922935 286.787867 
L 245.797051 286.897623 
L 246.717007 286.917506 
L 253.592146 287.027262 
L 255.788796 287.053906 
L 262.330706 287.163661 
L 264.145064 287.194282 
L 277.175731 287.216153 
L 277.175731 287.216153 
" clip-path="url(#p03ad2b14a4)" style="fill: none; stroke: #ffff00; stroke-width: 1.5; stroke-linecap: square"/>
   </g>
   <g id="line2d_15">
    <path d="M 73.851126 244.276198 
L 74.404122 244.453557 
L 75.463094 244.697326 
L 76.628372 244.871902 
L 77.913244 244.979272 
L 78.423308 245.046079 
L 79.964746 245.156233 
L 81.87621 245.275533 
L 83.582217 245.386084 
L 86.415682 245.571794 
L 89.092754 245.679561 
L 89.906404 245.746369 
L 93.800885 245.856522 
L 96.525999 246.031098 
L 99.204094 246.141251 
L 100.701578 246.208059 
L 103.520732 246.315429 
L 104.329271 246.390985 
L 107.847592 246.501536 
L 110.149527 246.641117 
L 113.461369 246.75127 
L 116.832497 247.059461 
L 118.868666 247.169615 
L 119.654718 247.239604 
L 121.977096 247.381968 
L 123.658571 247.492122 
L 125.93904 247.666697 
L 128.298216 247.776851 
L 129.879518 247.872688 
L 132.180431 247.983239 
L 135.758038 248.247687 
L 137.734921 248.35784 
L 140.040944 248.546732 
L 141.932987 248.657283 
L 143.785166 248.755904 
L 145.388956 248.866455 
L 147.364817 248.971041 
L 148.952252 249.081592 
L 151.732564 249.273267 
L 154.32684 249.38342 
L 155.02294 249.432731 
L 158.078217 249.543282 
L 160.195138 249.674114 
L 161.983941 249.781484 
L 162.59009 249.810514 
L 164.932911 249.921065 
L 167.207247 250.057464 
L 169.223996 250.168015 
L 170.551799 250.208577 
L 172.004307 250.319128 
L 173.867729 250.420533 
L 176.06438 250.522335 
L 176.362855 250.571646 
L 178.141436 250.690946 
L 180.663138 250.801497 
L 181.255999 250.830526 
L 183.60802 250.987207 
L 186.290203 251.097758 
L 189.157399 251.327211 
L 191.517598 251.437364 
L 192.979306 251.516102 
L 195.882278 251.626256 
L 198.14026 251.80958 
L 200.744757 251.919733 
L 202.394545 252.015571 
L 204.703635 252.123338 
L 205.470265 252.178216 
L 207.669982 252.288767 
L 209.887076 252.419599 
L 212.105193 252.529752 
L 213.784624 252.63752 
L 216.172421 252.74489 
L 217.03718 252.83516 
L 219.153079 252.965594 
L 222.080583 253.073362 
L 223.003606 253.163234 
L 226.049683 253.270604 
L 226.408466 253.352125 
L 227.662672 253.378371 
L 231.660393 253.485741 
L 232.111171 253.529484 
L 235.974987 253.639638 
L 237.339588 253.706446 
L 241.326064 253.816997 
L 243.323391 253.924366 
L 247.382442 254.034918 
L 249.546383 254.159785 
L 251.638772 254.270336 
L 253.366245 254.348676 
L 255.792885 254.458829 
L 256.772127 254.479508 
L 259.593326 254.589661 
L 260.245472 254.638972 
L 264.715437 254.749523 
L 266.275273 254.801617 
L 269.464454 254.912168 
L 269.914211 254.955912 
L 273.994727 255.063281 
L 275.242801 255.103843 
L 277.629576 255.214394 
L 278.827563 255.24064 
L 281.899194 255.350794 
L 283.032785 255.383005 
L 285.402183 255.493158 
L 286.919088 255.571896 
L 290.897387 255.682049 
L 292.950933 255.815665 
L 296.56125 255.923035 
L 297.227707 255.975527 
L 299.295564 255.949281 
L 299.346672 255.272454 
L 299.346672 255.272454 
" clip-path="url(#p03ad2b14a4)" style="fill: none; stroke: #ffa500; stroke-width: 1.5; stroke-linecap: square"/>
   </g>
   <g id="line2d_16">
    <path d="M 74.353014 182.549317 
L 74.624912 182.858701 
L 75.244349 183.617845 
L 75.566333 183.965008 
L 75.988491 184.355515 
L 76.789875 184.76193 
L 77.885645 184.88123 
L 79.902393 184.989792 
L 81.466318 185.217655 
L 82.614219 185.326218 
L 82.989357 185.374733 
L 83.923623 185.483296 
L 84.682076 185.542945 
L 85.634742 185.651508 
L 86.949257 185.841195 
L 88.797346 185.949758 
L 89.438249 185.982366 
L 91.521438 186.090929 
L 94.018608 186.486606 
L 96.35223 186.595169 
L 97.483776 186.714469 
L 98.553992 186.817464 
L 98.886198 186.844506 
L 100.520653 186.953068 
L 101.312838 187.012718 
L 102.565 187.121281 
L 103.600462 187.218709 
L 105.289092 187.327272 
L 105.835955 187.338009 
L 107.505164 187.446572 
L 108.521205 187.565871 
L 110.747498 187.674434 
L 111.53355 187.722949 
L 113.134273 187.826343 
L 113.693402 187.940075 
L 114.527496 188.048638 
L 116.138441 188.276103 
L 117.762675 188.384665 
L 118.03355 188.439146 
L 118.365757 188.547311 
L 118.693874 188.639569 
L 119.508547 188.748132 
L 120.34264 188.824086 
L 121.316771 188.932649 
L 122.50147 189.062686 
L 123.577819 189.171248 
L 124.056196 189.252372 
L 124.684833 189.360935 
L 126.24978 189.605102 
L 126.943836 189.713267 
L 127.66038 189.756612 
L 129.084267 189.865175 
L 132.088435 190.434633 
L 133.304821 190.543195 
L 134.716443 190.705841 
L 135.304193 190.814404 
L 135.764171 190.890358 
L 137.42418 191.117823 
L 139.031037 191.226385 
L 141.400435 191.633197 
L 142.388877 191.736193 
L 142.783436 191.785106 
L 143.703392 191.86106 
L 144.570195 191.969225 
L 145.035284 192.072618 
L 146.000215 192.175614 
L 146.346732 192.207825 
L 147.110296 192.316387 
L 148.367569 192.479033 
L 149.793501 192.587595 
L 150.148195 192.630941 
L 150.707324 192.733936 
L 151.29814 192.875108 
L 152.300892 192.983671 
L 152.740427 193.04332 
L 153.945569 193.184094 
L 155.090404 193.292657 
L 156.622642 193.531256 
L 157.514999 193.639819 
L 158.919465 193.823938 
L 159.994792 193.932501 
L 161.193801 194.08441 
L 161.860258 194.192972 
L 163.892339 194.491222 
L 164.970732 194.599784 
L 167.122407 194.925075 
L 167.967744 195.033638 
L 168.512563 195.14737 
L 169.31088 195.250366 
L 169.661486 195.288144 
L 170.71228 195.396707 
L 171.993063 195.575656 
L 172.761738 195.684219 
L 174.409481 195.94469 
L 175.660622 196.052855 
L 176.448717 196.12881 
L 177.744833 196.226635 
L 177.99731 196.269981 
L 178.53804 196.372976 
L 179.605189 196.703834 
L 180.311511 196.752747 
L 181.62807 196.860912 
L 182.399811 196.920562 
L 183.073423 197.029125 
L 184.610772 197.267724 
L 185.816937 197.376287 
L 187.254113 197.577108 
L 188.072873 197.685274 
L 189.1482 197.810141 
L 189.919941 197.918703 
L 194.449191 198.525939 
L 194.797752 198.628935 
L 195.991651 198.780843 
L 197.348075 198.889406 
L 198.934488 199.111701 
L 199.822757 199.220264 
L 201.788396 199.507378 
L 202.57547 199.615941 
L 203.054869 199.697463 
L 208.339506 200.353611 
L 209.720462 200.521824 
L 210.625086 200.629989 
L 212.035685 200.836377 
L 212.896355 200.944543 
L 214.171005 201.123492 
L 215.881101 201.232055 
L 216.695774 201.45435 
L 217.541111 201.552176 
L 218.582706 201.660341 
L 219.806247 201.828554 
L 221.10543 201.937116 
L 222.59167 202.148675 
L 223.738549 202.257237 
L 225.068396 202.414315 
L 226.436064 202.517311 
L 226.8572 202.582528 
L 227.750579 202.691091 
L 229.663066 202.983773 
L 230.879452 203.092336 
L 231.332275 203.16829 
L 232.354448 203.276455 
L 233.600478 203.4391 
L 234.339509 203.547663 
L 235.459811 203.678097 
L 236.933785 203.867784 
L 238.148127 203.970779 
L 239.126347 204.263461 
L 239.959419 204.372024 
L 241.120608 204.513196 
L 241.844306 204.621361 
L 242.751996 204.70845 
L 243.580979 204.816615 
L 244.654261 204.947049 
L 245.649858 205.028173 
L 247.41924 205.136736 
L 247.41924 205.136736 
" clip-path="url(#p03ad2b14a4)" style="fill: none; stroke: #ff0000; stroke-width: 1.5; stroke-linecap: square"/>
   </g>
   <g id="line2d_17">
    <path d="M 73.832727 288.139931 
L 74.351991 288.246903 
L 75.996668 288.771424 
L 77.042352 288.881578 
L 79.721468 288.938444 
L 83.7059 289.048597 
L 86.900192 289.136482 
L 90.452245 289.247033 
L 92.675472 289.275267 
L 95.665329 289.38542 
L 99.268491 289.498755 
L 103.482912 289.607318 
L 104.837292 289.664184 
L 109.336899 289.774338 
L 112.19694 289.841941 
L 114.754418 289.952094 
L 118.71534 290.087698 
L 122.318501 290.197852 
L 123.800653 290.271817 
L 128.707085 290.467071 
L 132.156921 290.577225 
L 137.906646 290.824573 
L 140.845395 290.933136 
L 141.840992 290.945861 
L 143.73099 291.056014 
L 147.078608 291.153443 
L 149.380543 291.263596 
L 150.811586 291.330006 
L 154.210312 291.44016 
L 159.21794 291.641776 
L 162.924341 291.75193 
L 167.984099 291.95633 
L 170.7685 292.066881 
L 175.24153 292.235094 
L 179.074681 292.345247 
L 183.188929 292.490395 
L 186.20434 292.600549 
L 190.139708 292.735755 
L 193.691761 292.845908 
L 198.057463 293.006565 
L 202.939364 293.116719 
L 207.693492 293.302826 
L 211.733122 293.41298 
L 212.830936 293.438033 
L 216.178554 293.548186 
L 219.271651 293.630105 
L 222.159291 293.740259 
L 225.685789 293.848822 
L 229.518939 293.959373 
L 232.917666 294.059982 
L 236.415543 294.170135 
L 237.769923 294.227002 
L 242.19389 294.337155 
L 245.771497 294.448899 
L 250.166842 294.559053 
L 252.441178 294.590468 
L 255.63547 294.699031 
L 256.708752 294.7213 
L 260.721805 294.829863 
L 261.896282 294.866051 
L 265.754987 294.976204 
L 269.000388 295.067667 
L 273.344625 295.177821 
L 277.433319 295.322571 
L 285.329608 295.432724 
L 287.782824 295.475275 
L 288.779444 295.488 
L 288.779444 295.488 
" clip-path="url(#p03ad2b14a4)" style="fill: none; stroke: #800080; stroke-width: 1.5; stroke-linecap: square"/>
   </g>
   <g id="line2d_18">
    <path d="M 75.116577 181.80091 
L 75.465138 182.158809 
L 76.15715 182.766443 
L 76.560908 182.983171 
L 77.351048 183.211033 
L 78.676807 183.319596 
L 81.540937 183.834573 
L 82.808432 183.937569 
L 83.190725 183.986481 
L 83.928734 184.095044 
L 85.678695 184.366252 
L 86.906325 184.474815 
L 87.539051 184.501856 
L 89.239947 184.610419 
L 91.505084 184.99536 
L 94.009408 185.103922 
L 95.826833 185.358429 
L 96.888871 185.466991 
L 97.73012 185.537776 
L 99.222493 185.645941 
L 99.942103 185.689286 
L 100.955077 185.797849 
L 101.721707 185.852329 
L 103.502333 185.955325 
L 103.832495 185.982366 
L 106.598496 186.090929 
L 107.320151 186.134275 
L 112.94926 186.24244 
L 113.787442 186.313224 
L 114.592915 186.421389 
L 115.920718 186.600339 
L 116.722102 186.703732 
L 117.263854 186.806727 
L 117.990619 186.914893 
L 118.913642 187.023455 
L 119.767157 187.126451 
L 120.176026 187.197235 
L 121.889189 187.300231 
L 122.280681 187.354313 
L 122.605732 187.462876 
L 123.34783 187.685171 
L 124.14717 187.750388 
L 124.958775 187.853384 
L 125.359467 187.896729 
L 126.054545 187.940075 
L 126.945881 188.048638 
L 130.181059 188.569182 
L 130.919069 188.677745 
L 131.78485 188.742565 
L 132.588278 188.851127 
L 133.921192 189.040814 
L 134.694977 189.149377 
L 136.208816 189.398713 
L 137.253477 189.507276 
L 139.244671 189.848871 
L 141.17249 189.957434 
L 142.082225 190.054862 
L 150.052111 191.014827 
L 150.481424 191.090781 
L 151.63648 191.199344 
L 152.009573 191.237122 
L 152.776203 191.345685 
L 154.183736 191.540939 
L 155.057694 191.643934 
L 155.405233 191.68728 
L 156.207639 191.795843 
L 156.550067 191.834019 
L 157.290121 191.937014 
L 157.741921 192.018138 
L 159.150476 192.240433 
L 160.167539 192.332692 
L 160.44557 192.42495 
L 163.056201 192.907716 
L 163.819765 193.016279 
L 165.784382 193.319698 
L 166.478438 193.422694 
L 166.976236 193.520519 
L 168.743574 193.753552 
L 169.468295 193.862114 
L 170.47718 193.970677 
L 171.312296 194.073673 
L 172.062571 194.257792 
L 173.924971 194.567176 
L 174.788708 194.675739 
L 176.974114 195.028071 
L 177.561864 195.125499 
L 177.868516 195.196283 
L 178.637191 195.304448 
L 179.954772 195.478228 
L 180.467903 195.586791 
L 181.286664 195.657178 
L 182.305771 195.765741 
L 185.547083 196.340368 
L 186.588678 196.448931 
L 188.095361 196.693097 
L 188.98363 196.801262 
L 190.651817 197.050997 
L 192.290361 197.159162 
L 194.595362 197.549669 
L 195.308839 197.658232 
L 196.272749 197.766795 
L 197.090487 197.875358 
L 197.547399 197.962049 
L 198.264965 198.070214 
L 199.315759 198.189911 
L 199.826846 198.292907 
L 200.285802 198.368861 
L 201.485833 198.509635 
L 202.124692 198.618198 
L 203.402408 198.753802 
L 204.2825 198.862364 
L 204.822207 198.976097 
L 205.239254 199.08466 
L 207.289734 199.388079 
L 208.245466 199.496641 
L 208.909879 199.545554 
L 209.671398 199.654117 
L 210.054713 199.762282 
L 210.820321 199.870845 
L 212.523262 200.131316 
L 213.410508 200.239481 
L 214.535921 200.375085 
L 215.076651 200.478081 
L 215.40068 200.510689 
L 216.125401 200.619252 
L 218.153393 200.95011 
L 218.82905 201.053105 
L 219.206232 201.102018 
L 219.922775 201.210183 
L 220.783445 201.291705 
L 221.629805 201.400268 
L 224.408072 201.877467 
L 225.359716 201.986029 
L 225.692944 202.007503 
L 228.11754 202.403578 
L 228.739021 202.512141 
L 229.73564 202.604002 
L 230.8171 202.712565 
L 231.291388 202.799256 
L 232.619191 202.978206 
L 233.527903 203.086768 
L 234.046145 203.200501 
L 234.938503 203.303894 
L 235.388259 203.37945 
L 236.100714 203.488013 
L 236.534115 203.5584 
L 237.567533 203.666963 
L 239.260252 203.976347 
L 240.338645 204.079342 
L 241.895415 204.301637 
L 242.887945 204.4102 
L 244.64915 204.670274 
L 245.489377 204.778836 
L 246.04135 204.908873 
L 247.045125 205.017436 
L 247.855708 205.087823 
L 248.767487 205.196386 
L 250.765836 205.53798 
L 251.653083 205.646543 
L 254.110387 206.091134 
L 255.891014 206.199696 
L 257.429385 206.421992 
L 259.851936 206.530554 
L 261.703092 206.796195 
L 262.20089 206.823236 
L 262.20089 206.823236 
" clip-path="url(#p03ad2b14a4)" style="fill: none; stroke: #add8e6; stroke-width: 1.5; stroke-linecap: square"/>
   </g>
   <g id="line2d_19">
    <path d="M 76.40656 277.035511 
L 77.424645 278.032061 
L 77.528906 278.139431 
L 77.759918 278.328322 
L 78.806623 278.918061 
L 79.641739 279.002366 
L 83.146772 278.894996 
L 83.709989 278.813475 
L 87.579938 278.924026 
L 89.448471 279.26403 
L 91.648188 279.394464 
L 95.061225 279.502232 
L 95.754259 279.548759 
L 98.201342 279.658912 
L 99.370708 279.714188 
L 102.393275 279.824739 
L 103.676103 279.847803 
L 105.800179 279.958354 
L 107.085051 279.987384 
L 109.400274 280.097538 
L 110.151571 280.167527 
L 113.220136 280.27768 
L 114.395635 280.31864 
L 117.796406 280.428793 
L 119.792711 280.568374 
L 121.159357 280.678925 
L 122.949182 280.762832 
L 125.28076 280.8706 
L 125.881798 280.963654 
L 126.864107 281.073807 
L 128.510828 281.149364 
L 130.412071 281.259915 
L 131.080572 281.297693 
L 133.436682 281.407846 
L 135.093625 281.503684 
L 136.745457 281.614235 
L 137.417025 281.660762 
L 139.980636 281.768132 
L 140.715579 281.834939 
L 142.600467 281.968555 
L 146.003282 282.079106 
L 149.249705 282.323273 
L 151.413646 282.433427 
L 153.215738 282.546761 
L 155.527894 282.657312 
L 157.149061 282.738436 
L 159.273137 282.848987 
L 161.030253 282.93886 
L 162.738305 283.049411 
L 164.712122 283.153997 
L 166.759535 283.264548 
L 168.286662 283.342888 
L 170.610063 283.450258 
L 171.336828 283.50275 
L 173.489525 283.612903 
L 175.1894 283.705957 
L 178.200723 283.813327 
L 179.239251 283.952908 
L 182.424343 284.063459 
L 184.016889 284.141799 
L 185.537883 284.25235 
L 186.590722 284.266666 
L 188.326372 284.374433 
L 189.215663 284.46709 
L 192.676743 284.577641 
L 193.517991 284.661946 
L 195.691132 284.772099 
L 196.987248 284.821807 
L 199.480329 284.929177 
L 200.207094 284.978488 
L 203.13051 285.089039 
L 205.178946 285.202374 
L 209.231863 285.312527 
L 211.799563 285.521699 
L 214.589074 285.63225 
L 216.559825 285.736836 
L 219.157167 285.84699 
L 220.417507 285.914195 
L 223.494249 286.024349 
L 223.955249 286.070876 
L 226.370645 286.181427 
L 228.309708 286.274083 
L 230.850831 286.384634 
L 232.738786 286.480472 
L 235.754197 286.591023 
L 237.587976 286.680895 
L 240.466417 286.788663 
L 242.308373 286.878535 
L 245.046776 286.989086 
L 246.720074 287.076175 
L 249.07005 287.186328 
L 250.327324 287.232855 
L 253.350913 287.340623 
L 254.013281 287.372436 
L 256.976562 287.482987 
L 258.89007 287.590357 
L 261.822686 287.700908 
L 263.387633 287.761751 
L 266.623835 287.869121 
L 267.36491 287.930361 
L 270.830078 288.040515 
L 271.479158 288.084258 
L 272.639325 288.194809 
L 275.54332 288.252868 
L 278.880716 288.357454 
L 279.108661 288.377735 
L 281.766312 288.487889 
L 282.632093 288.493854 
L 284.227705 288.557878 
L 284.373876 286.753668 
L 284.373876 286.753668 
" clip-path="url(#p03ad2b14a4)" style="fill: none; stroke: #0000ff; stroke-width: 1.5; stroke-linecap: square"/>
   </g>
   <g id="line2d_20">
    <path d="M 75.955781 53.568 
L 76.004846 53.614129 
L 76.152039 53.904823 
L 76.22768 53.904823 
L 76.532287 54.892625 
L 76.823607 55.673641 
L 76.872671 55.749992 
L 77.122081 56.262981 
L 77.223277 56.354842 
L 77.529929 57.005821 
L 78.550058 58.605631 
L 78.626721 58.674824 
L 78.958927 59.118619 
L 79.315666 59.539748 
L 79.417883 59.647117 
L 79.749067 60.037625 
L 79.876839 60.144597 
L 80.208023 60.542661 
L 80.61587 60.910502 
L 81.279261 61.538018 
L 81.407032 61.629879 
L 81.99376 62.181442 
L 82.095977 62.272905 
L 82.402629 62.479691 
L 82.504847 62.571552 
L 82.837053 62.785894 
L 83.169259 62.946948 
L 83.34814 63.107605 
L 83.654792 63.306836 
L 85.724693 64.416721 
L 85.903573 64.524091 
L 86.286888 64.722924 
L 86.619095 64.830294 
L 87.487942 65.220801 
L 87.794594 65.312662 
L 88.102268 65.458208 
L 88.306703 65.56518 
L 88.816767 65.764411 
L 89.097865 65.863827 
L 89.813387 66.177585 
L 90.24781 66.2774 
L 90.707788 66.422548 
L 90.963332 66.522362 
L 91.42331 66.667907 
L 91.858756 66.774879 
L 92.18994 66.859185 
L 92.803244 66.951045 
L 93.161005 67.127211 
L 96.253079 67.930894 
L 96.61084 68.038264 
L 97.709676 68.252606 
L 98.246317 68.359578 
L 99.038502 68.490012 
L 99.524034 68.596984 
L 100.495099 68.788659 
L 101.081826 68.895631 
L 101.440609 68.987492 
L 102.462783 69.179167 
L 103.254967 69.286139 
L 104.379358 69.508037 
L 104.992662 69.615406 
L 105.759292 69.730332 
L 106.39815 69.837304 
L 107.624758 70.090219 
L 108.749149 70.189636 
L 108.953584 70.227812 
L 109.566888 70.335182 
L 110.537953 70.51095 
L 111.432354 70.61832 
L 112.097789 70.702625 
L 112.684517 70.809597 
L 112.94006 70.893902 
L 113.425593 71.001272 
L 114.345549 71.154373 
L 115.086624 71.261345 
L 115.46994 71.269299 
L 115.853255 71.376271 
L 117.207634 71.667362 
L 117.897601 71.774334 
L 118.204253 71.84313 
L 118.740894 71.9505 
L 119.149764 71.958056 
L 119.507525 72.05787 
L 119.839731 72.134222 
L 120.606361 72.241591 
L 121.986295 72.539841 
L 122.752925 72.647211 
L 123.391784 72.723562 
L 123.928425 72.823377 
L 124.337294 72.945858 
L 124.899489 73.05283 
L 125.691674 73.183264 
L 126.483858 73.275125 
L 126.762911 73.382097 
L 127.249466 73.489467 
L 128.1684 73.650124 
L 128.808281 73.757494 
L 129.166041 73.841401 
L 129.908139 73.963882 
L 130.598106 74.071252 
L 131.440377 74.209242 
L 131.874801 74.316214 
L 132.616899 74.423584 
L 133.202604 74.530556 
L 134.12256 74.691611 
L 134.685778 74.798583 
L 135.785636 75.012925 
L 136.782255 75.120294 
L 138.136635 75.410988 
L 138.775494 75.510802 
L 139.056591 75.556534 
L 139.796645 75.663903 
L 140.103297 75.717191 
L 140.538743 75.740255 
L 140.998721 75.832116 
L 141.254264 75.916421 
L 142.17422 76.077078 
L 143.043068 76.184448 
L 144.039687 76.36817 
L 144.755208 76.475142 
L 145.419621 76.567003 
L 146.518457 76.674372 
L 147.872837 76.965066 
L 148.71613 77.072436 
L 149.559423 77.210426 
L 150.147173 77.317398 
L 150.964912 77.447435 
L 151.960509 77.554804 
L 153.136008 77.792211 
L 153.672649 77.899183 
L 154.362616 77.998997 
L 155.973561 78.105969 
L 157.583485 78.473412 
L 159.117767 78.580782 
L 159.627831 78.764504 
L 160.368907 78.871476 
L 160.675559 78.932716 
L 161.339972 79.024577 
L 162.106602 79.131947 
L 163.179884 79.338733 
L 164.09984 79.445705 
L 164.738699 79.530011 
L 165.735318 79.63738 
L 167.064143 79.920518 
L 168.009653 80.027888 
L 168.674066 80.10424 
L 169.491805 80.21161 
L 170.539533 80.410443 
L 171.407358 80.517812 
L 171.969553 80.571497 
L 172.711651 80.678469 
L 173.886129 80.915876 
L 174.807107 81.023246 
L 175.445965 81.099598 
L 176.135932 81.206967 
L 177.132551 81.390689 
L 177.975844 81.497661 
L 178.53804 81.551346 
L 179.253561 81.658318 
L 180.223604 81.849993 
L 181.066897 81.956965 
L 181.32244 81.995539 
L 182.473407 82.102511 
L 182.703396 82.163751 
L 183.214483 82.271121 
L 183.979069 82.385649 
L 185.744362 82.493019 
L 187.533166 82.906591 
L 188.785328 83.006007 
L 189.194198 83.120933 
L 190.241925 83.319766 
L 191.698523 83.427136 
L 192.081838 83.526552 
L 192.56737 83.625968 
L 192.899576 83.710274 
L 193.589543 83.817643 
L 194.305065 83.91706 
L 195.73713 84.024032 
L 196.017205 84.146911 
L 196.962716 84.315123 
L 197.959335 84.422493 
L 198.444867 84.453113 
L 199.032617 84.560085 
L 200.207094 84.813001 
L 201.179181 84.919973 
L 201.460279 84.966102 
L 202.506984 85.164935 
L 203.53018 85.264749 
L 203.862386 85.341101 
L 204.680125 85.448471 
L 205.881179 85.693433 
L 207.107787 85.800405 
L 207.439993 85.88471 
L 208.232178 85.991682 
L 208.998808 86.114561 
L 209.969873 86.221533 
L 210.404296 86.244598 
L 210.709926 86.35157 
L 210.991024 86.397699 
L 211.655437 86.497116 
L 211.962089 86.558356 
L 212.882045 86.719013 
L 213.930795 86.818827 
L 214.237447 86.872512 
L 215.004077 86.979484 
L 216.051804 87.178715 
L 216.920652 87.285687 
L 217.55951 87.362436 
L 218.683901 87.461853 
L 218.964999 87.569223 
L 219.706074 87.676195 
L 220.421596 87.783565 
L 221.136095 87.882981 
L 221.929302 87.982398 
L 222.184845 88.020573 
L 222.901389 88.127943 
L 223.207018 88.196739 
L 224.024757 88.296553 
L 224.304833 88.334729 
L 225.35256 88.441702 
L 226.452419 88.671552 
L 227.93457 88.770969 
L 228.190114 88.86283 
L 229.159134 88.970199 
L 230.181308 89.161477 
L 230.872297 89.260893 
L 231.178949 89.322134 
L 232.124459 89.429503 
L 232.865535 89.536476 
L 233.607633 89.643845 
L 234.220937 89.712641 
L 235.421991 89.820011 
L 236.086404 89.904316 
L 236.699708 90.003733 
L 237.031914 90.072529 
L 237.543001 90.110705 
L 238.309631 90.218075 
L 238.922935 90.286871 
L 240.327401 90.386685 
L 240.838488 90.562453 
L 241.65316 90.700443 
L 243.315214 90.807415 
L 243.570757 90.90723 
L 244.081844 91.014202 
L 244.389518 91.083396 
L 245.156148 91.190368 
L 245.769452 91.259164 
L 246.894865 91.366534 
L 248.123518 91.619051 
L 248.940234 91.726421 
L 249.349104 91.733977 
L 250.141288 91.841347 
L 251.163462 92.032624 
L 252.032309 92.139596 
L 252.645613 92.216345 
L 253.744449 92.323318 
L 254.843286 92.553168 
L 256.04434 92.660538 
L 256.325437 92.76751 
L 256.862078 92.87488 
L 257.16873 92.928167 
L 258.574219 93.249879 
L 259.903044 93.357249 
L 260.107479 93.40298 
L 260.797446 93.494841 
L 261.896282 93.602211 
L 262.356261 93.625275 
L 264.605042 93.732248 
L 264.860585 93.770423 
L 266.061639 93.877793 
L 266.751606 93.969654 
L 268.412638 94.076626 
L 268.923725 94.122755 
L 270.66142 94.229727 
L 271.071311 94.245236 
L 272.501332 94.352209 
L 273.139168 94.436514 
L 274.622342 94.543883 
L 274.877885 94.574504 
L 276.845569 94.67392 
L 277.126666 94.727605 
L 278.174394 94.834577 
L 278.73659 94.895818 
L 280.089947 95.003188 
L 280.601034 95.041363 
L 281.69987 95.148733 
L 282.185403 95.179353 
L 284.205217 95.286326 
L 284.86963 95.378186 
L 285.968467 95.485556 
L 286.530662 95.539241 
L 288.319465 95.646213 
L 288.830552 95.684389 
L 291.437094 95.791759 
L 292.484822 95.990989 
L 294.069191 96.097962 
L 294.47806 96.105517 
L 295.985766 96.212887 
L 296.241309 96.235952 
L 297.95345 96.335368 
L 298.208993 96.427229 
L 299.410047 96.534599 
L 299.946688 96.58033 
L 301.734469 96.6877 
L 302.168893 96.702811 
L 303.549849 96.810181 
L 303.830947 96.855913 
L 304.802012 96.963282 
L 305.288566 96.993903 
L 307.025239 97.100875 
L 307.56188 97.147004 
L 309.146249 97.253976 
L 309.580673 97.269485 
L 310.551737 97.376457 
L 311.215128 97.468318 
L 312.898648 97.575688 
L 313.435289 97.621419 
L 315.506212 97.728789 
L 316.171647 97.813094 
L 317.732506 97.920066 
L 318.037113 97.981307 
L 318.419406 97.98926 
L 319.850449 98.096232 
L 320.437177 98.165028 
L 322.662448 98.272398 
L 322.9691 98.326083 
L 324.708839 98.433055 
L 325.014469 98.494296 
L 326.701055 98.601665 
L 327.238719 98.647397 
L 329.180848 98.754767 
L 329.538609 98.839072 
L 330.407456 98.938488 
L 330.661977 98.969109 
L 332.579575 99.076081 
L 333.065107 99.114654 
L 335.058345 99.221626 
L 335.364997 99.282867 
L 336.131627 99.397792 
L 337.433876 99.505162 
L 337.843768 99.512718 
L 339.784875 99.61969 
L 340.398179 99.696439 
L 341.599233 99.803412 
L 342.186983 99.872605 
L 343.617003 99.972022 
L 343.848015 99.987531 
L 345.894406 100.078994 
L 346.097818 100.125123 
L 346.734632 100.201873 
L 347.834491 100.308845 
L 348.090034 100.339465 
L 349.70098 100.446835 
L 349.981055 100.485011 
L 350.544273 100.530742 
L 352.460848 100.638112 
L 353.07313 100.706908 
L 354.505195 100.806722 
L 354.786292 100.852454 
L 355.757357 100.95187 
L 356.0129 100.982491 
L 358.13391 101.089861 
L 358.389454 101.120481 
L 359.333942 101.227453 
L 359.921692 101.296647 
L 361.583746 101.403619 
L 361.864843 101.449748 
L 363.117006 101.55672 
L 363.550407 101.579785 
L 365.340233 101.687155 
L 366.055754 101.786571 
L 367.178101 101.893543 
L 367.587992 101.909052 
L 368.866731 102.008469 
L 369.09672 102.023978 
L 369.58123 102.054598 
L 371.319947 102.146459 
L 371.524382 102.200143 
L 372.315544 102.307116 
L 372.955425 102.383865 
L 374.923109 102.490837 
L 375.485304 102.544522 
L 376.763021 102.651494 
L 377.222999 102.682512 
L 378.730705 102.789484 
L 379.062911 102.866234 
L 380.36516 102.973206 
L 380.876247 103.011382 
L 383.151605 103.118752 
L 384.020452 103.264297 
L 385.067158 103.363714 
L 385.349278 103.40189 
L 387.495842 103.509259 
L 387.751385 103.532324 
L 389.207982 103.639296 
L 389.846841 103.716046 
L 390.792351 103.823018 
L 391.277884 103.853638 
L 392.990024 103.961008 
L 393.220013 103.976119 
L 394.983262 104.083489 
L 395.571012 104.144729 
L 397.410924 104.251701 
L 397.74313 104.328451 
L 398.487273 104.412756 
L 398.487273 104.412756 
" clip-path="url(#p03ad2b14a4)" style="fill: none; stroke: #008000; stroke-width: 1.5; stroke-linecap: square"/>
   </g>
   <g id="line2d_21">
    <path d="M 91.729962 66.751815 
" clip-path="url(#p03ad2b14a4)" style="fill: none; stroke: #008000; stroke-width: 1.5; stroke-linecap: square"/>
    <defs>
     <path id="m9d5901866e" d="M -2.5 2.5 
L 2.5 2.5 
L 2.5 -2.5 
L -2.5 -2.5 
z
" style="stroke: #008000; stroke-linejoin: miter"/>
    </defs>
    <g clip-path="url(#p03ad2b14a4)">
     <use xlink:href="#m9d5901866e" x="91.729962" y="66.751815" style="fill: #008000; stroke: #008000; stroke-linejoin: miter"/>
    </g>
   </g>
   <g id="line2d_22">
    <path d="M 398.487273 104.412756 
" clip-path="url(#p03ad2b14a4)" style="fill: none; stroke: #008000; stroke-width: 1.5; stroke-linecap: square"/>
    <g clip-path="url(#p03ad2b14a4)">
     <use xlink:href="#m9d5901866e" x="398.487273" y="104.412756" style="fill: #008000; stroke: #008000; stroke-linejoin: miter"/>
    </g>
   </g>
   <g id="patch_3">
    <path d="M 57.6 307.584 
L 57.6 41.472 
" style="fill: none; stroke: #000000; stroke-width: 0.8; stroke-linejoin: miter; stroke-linecap: square"/>
   </g>
   <g id="patch_4">
    <path d="M 414.72 307.584 
L 414.72 41.472 
" style="fill: none; stroke: #000000; stroke-width: 0.8; stroke-linejoin: miter; stroke-linecap: square"/>
   </g>
   <g id="patch_5">
    <path d="M 57.6 307.584 
L 414.72 307.584 
" style="fill: none; stroke: #000000; stroke-width: 0.8; stroke-linejoin: miter; stroke-linecap: square"/>
   </g>
   <g id="patch_6">
    <path d="M 57.6 41.472 
L 414.72 41.472 
" style="fill: none; stroke: #000000; stroke-width: 0.8; stroke-linejoin: miter; stroke-linecap: square"/>
   </g>
   <g id="text_16">
    <!-- Deposition of different mixtures of Sk100:Dpt10 -->
    <g transform="translate(113.509405 35.472) scale(0.12 -0.12)">
     <defs>
      <path id="CMR17-44" d="M 333 4352 
L 333 4185 
C 774 4185 845 4185 845 3898 
L 845 453 
C 845 166 774 166 333 166 
L 333 0 
L 2368 0 
C 3398 0 4224 943 4224 2140 
C 4224 3344 3411 4352 2368 4352 
L 333 4352 
z
M 1523 166 
C 1267 166 1254 198 1254 414 
L 1254 3936 
C 1254 4153 1267 4185 1523 4185 
L 2240 4185 
C 2771 4185 3750 3873 3750 2140 
C 3750 1242 3488 879 3366 707 
C 3213 510 2848 166 2240 166 
L 1523 166 
z
" transform="scale(0.015625)"/>
      <path id="CMR17-70" d="M 1408 -1114 
C 998 -1114 973 -1088 973 -834 
L 973 380 
C 1158 109 1427 -64 1766 -64 
C 2406 -64 3053 503 3053 1382 
C 3053 2196 2496 2816 1837 2816 
C 1453 2816 1139 2603 960 2345 
L 960 2816 
L 198 2745 
L 198 2577 
C 576 2577 634 2539 634 2228 
L 634 -834 
C 634 -1081 608 -1114 198 -1114 
L 198 -1280 
C 352 -1268 634 -1268 800 -1268 
C 966 -1268 1254 -1268 1408 -1280 
L 1408 -1114 
z
M 973 2015 
C 973 2106 973 2241 1222 2481 
C 1254 2506 1472 2700 1792 2700 
C 2259 2700 2643 2112 2643 1376 
C 2643 639 2234 38 1728 38 
C 1498 38 1248 148 1056 451 
C 973 594 973 632 973 736 
L 973 2015 
z
" transform="scale(0.015625)"/>
      <path id="CMR17-6f" d="M 2758 1356 
C 2758 2176 2163 2816 1466 2816 
C 768 2816 173 2176 173 1356 
C 173 550 768 -64 1466 -64 
C 2163 -64 2758 550 2758 1356 
z
M 1466 51 
C 1165 51 909 230 762 480 
C 602 768 582 1126 582 1408 
C 582 1676 595 2009 762 2297 
C 890 2508 1139 2713 1466 2713 
C 1754 2713 1997 2553 2150 2329 
C 2349 2028 2349 1606 2349 1408 
C 2349 1158 2336 774 2163 467 
C 1984 172 1709 51 1466 51 
z
" transform="scale(0.015625)"/>
      <path id="CMR17-74" d="M 966 2585 
L 1862 2585 
L 1862 2752 
L 966 2752 
L 966 3968 
L 851 3968 
C 838 3292 614 2700 70 2687 
L 70 2585 
L 627 2585 
L 627 778 
C 627 655 627 -64 1370 -64 
C 1747 -64 1965 308 1965 784 
L 1965 1151 
L 1850 1151 
L 1850 790 
C 1850 347 1677 51 1408 51 
C 1222 51 966 179 966 765 
L 966 2585 
z
" transform="scale(0.015625)"/>
      <path id="CMR17-6e" d="M 2656 1954 
C 2656 2282 2592 2816 1837 2816 
C 1331 2816 1069 2424 973 2166 
L 966 2166 
L 966 2816 
L 211 2745 
L 211 2578 
C 589 2578 646 2540 646 2231 
L 646 443 
C 646 198 621 166 211 166 
L 211 0 
C 365 12 646 12 813 12 
C 979 12 1267 12 1421 0 
L 1421 166 
C 1011 166 986 192 986 443 
L 986 1678 
C 986 2269 1344 2713 1792 2713 
C 2266 2713 2317 2289 2317 1980 
L 2317 443 
C 2317 198 2291 166 1882 166 
L 1882 0 
C 2035 12 2317 12 2483 12 
C 2650 12 2938 12 3091 0 
L 3091 166 
C 2682 166 2656 192 2656 443 
L 2656 1954 
z
" transform="scale(0.015625)"/>
      <path id="CMR17-66" d="M 979 2585 
L 1709 2585 
L 1709 2752 
L 966 2752 
L 966 3539 
C 966 4076 1235 4377 1510 4377 
C 1594 4377 1690 4363 1754 4339 
C 1702 4326 1568 4281 1568 4121 
C 1568 3955 1696 3904 1786 3904 
C 1875 3904 2003 3955 2003 4121 
C 2003 4353 1773 4480 1517 4480 
C 1152 4480 653 4211 653 3526 
L 653 2752 
L 141 2752 
L 141 2585 
L 653 2585 
L 653 441 
C 653 198 627 166 218 166 
L 218 0 
C 371 12 666 12 832 12 
C 1018 12 1344 12 1517 0 
L 1517 166 
C 1056 166 979 166 979 454 
L 979 2585 
z
" transform="scale(0.015625)"/>
      <path id="CMR17-64" d="M 1869 4345 
L 1869 4179 
C 2246 4179 2304 4141 2304 3843 
L 2304 2371 
C 2278 2403 2016 2816 1498 2816 
C 845 2816 211 2228 211 1376 
C 211 529 806 -64 1434 -64 
C 1978 -64 2259 361 2291 406 
L 2291 -64 
L 3066 -13 
L 3066 154 
C 2688 154 2630 193 2630 503 
L 2630 4416 
L 1869 4345 
z
M 2291 762 
C 2291 568 2176 393 2029 264 
C 1811 70 1594 38 1472 38 
C 1286 38 621 135 621 1369 
C 621 2636 1363 2713 1530 2713 
C 1824 2713 2061 2545 2208 2313 
C 2291 2177 2291 2157 2291 2041 
L 2291 762 
z
" transform="scale(0.015625)"/>
      <path id="CMR17-b" d="M 2554 2585 
L 3283 2585 
L 3283 2752 
L 2541 2752 
L 2541 3520 
C 2541 4047 2810 4377 3085 4377 
C 3168 4377 3264 4352 3328 4307 
C 3277 4294 3142 4250 3142 4091 
C 3142 3926 3270 3875 3360 3875 
C 3450 3875 3578 3926 3578 4091 
C 3578 4333 3347 4480 3091 4480 
C 2842 4480 2637 4358 2477 4206 
C 2330 4415 2086 4480 1837 4480 
C 1338 4480 634 4193 634 3494 
L 634 2752 
L 122 2752 
L 122 2585 
L 634 2585 
L 634 441 
C 634 198 608 166 198 166 
L 198 0 
C 352 12 634 12 794 12 
C 960 12 1242 12 1395 0 
L 1395 166 
C 986 166 960 192 960 441 
L 960 2585 
L 2227 2585 
L 2227 441 
C 2227 198 2202 166 1792 166 
L 1792 0 
C 1946 12 2240 12 2406 12 
C 2592 12 2918 12 3091 0 
L 3091 166 
C 2630 166 2554 166 2554 454 
L 2554 2585 
z
M 947 2752 
L 947 3494 
C 947 4072 1395 4377 1824 4377 
C 1920 4377 2170 4358 2323 4218 
C 2208 4212 2099 4161 2099 4002 
C 2099 3837 2246 3793 2259 3793 
C 2227 3679 2227 3552 2227 3507 
L 2227 2752 
L 947 2752 
z
" transform="scale(0.015625)"/>
      <path id="CMR17-78" d="M 1664 1491 
C 1856 1740 2074 2022 2253 2233 
C 2464 2476 2707 2579 2989 2585 
L 2989 2752 
C 2880 2745 2656 2739 2541 2739 
C 2368 2739 2170 2739 2022 2752 
L 2022 2585 
C 2112 2572 2163 2508 2163 2419 
C 2163 2304 2099 2233 2067 2188 
L 1594 1587 
L 1030 2323 
C 973 2393 973 2406 973 2438 
C 973 2515 1037 2579 1146 2585 
L 1146 2752 
C 992 2739 717 2739 557 2739 
C 384 2739 179 2739 38 2752 
L 38 2585 
C 384 2585 461 2560 614 2368 
L 1350 1414 
C 1363 1401 1395 1363 1395 1344 
C 1395 1318 838 633 768 544 
C 480 198 179 172 6 166 
L 6 0 
C 115 6 339 12 454 12 
C 582 12 864 12 979 0 
L 979 166 
C 941 172 838 185 838 332 
C 838 448 890 518 947 595 
L 1478 1248 
L 2035 524 
C 2086 454 2163 358 2163 313 
C 2163 224 2086 172 1984 166 
L 1984 0 
C 2138 12 2413 12 2573 12 
C 2746 12 2950 12 3091 0 
L 3091 166 
C 2771 166 2675 179 2522 377 
L 1664 1491 
z
" transform="scale(0.015625)"/>
      <path id="CMR17-75" d="M 1882 2745 
L 1882 2579 
C 2259 2579 2317 2540 2317 2229 
L 2317 1053 
C 2317 510 2029 38 1555 38 
C 1030 38 986 355 986 691 
L 986 2816 
L 211 2745 
L 211 2579 
C 467 2579 640 2579 646 2320 
L 646 1079 
C 646 646 646 368 813 187 
C 896 103 1056 -64 1517 -64 
C 2061 -64 2272 400 2323 536 
L 2330 536 
L 2330 -64 
L 3091 -13 
L 3091 154 
C 2714 154 2656 193 2656 503 
L 2656 2816 
L 1882 2745 
z
" transform="scale(0.015625)"/>
      <path id="CMR17-53" d="M 2803 4351 
C 2803 4467 2797 4473 2758 4473 
C 2720 4473 2707 4447 2682 4390 
L 2490 3965 
C 2246 4320 1875 4480 1472 4480 
C 819 4480 294 3958 294 3301 
C 294 3101 339 2817 557 2546 
C 794 2250 1018 2198 1530 2063 
C 1722 2011 2042 1927 2106 1901 
C 2470 1747 2662 1360 2662 999 
C 2662 534 2336 38 1779 38 
C 1094 38 454 425 410 1328 
C 403 1431 397 1437 352 1437 
C 301 1437 294 1431 294 1302 
L 294 0 
C 294 -116 301 -122 339 -122 
C 384 -122 397 -90 486 109 
C 493 128 493 141 614 386 
C 934 -39 1472 -128 1779 -128 
C 2477 -128 2970 457 2970 1141 
C 2970 1476 2848 1734 2778 1850 
C 2509 2263 2221 2340 1914 2417 
C 1869 2437 1856 2437 1498 2527 
C 1152 2617 1005 2662 845 2836 
C 666 3036 602 3243 602 3449 
C 602 3868 934 4326 1478 4326 
C 2157 4326 2579 3842 2675 3036 
C 2694 2920 2701 2914 2746 2914 
C 2803 2914 2803 2933 2803 3043 
L 2803 4351 
z
" transform="scale(0.015625)"/>
      <path id="CMR17-6b" d="M 1670 1679 
C 1664 1692 1632 1730 1632 1749 
C 1632 1762 2086 2175 2144 2226 
C 2509 2532 2739 2563 2906 2570 
L 2906 2735 
C 2867 2735 2854 2735 2848 2729 
L 2534 2722 
C 2355 2722 2080 2722 1907 2735 
L 1907 2570 
C 1997 2563 2061 2513 2061 2423 
C 2061 2296 1933 2175 1926 2175 
L 960 1298 
L 960 4416 
L 198 4345 
L 198 4179 
C 576 4179 634 4141 634 3835 
L 634 439 
C 634 198 608 166 198 166 
L 198 0 
C 352 12 634 12 794 12 
C 954 12 1235 12 1389 0 
L 1389 166 
C 979 166 954 191 954 439 
L 954 1139 
L 1395 1540 
L 2042 586 
C 2118 471 2182 382 2182 299 
C 2182 185 2067 166 1990 166 
L 1990 0 
C 2144 12 2419 12 2579 12 
C 2694 12 2931 6 3040 0 
L 3040 166 
C 2739 166 2669 223 2477 503 
L 1670 1679 
z
" transform="scale(0.015625)"/>
      <path id="CMR17-3a" d="M 1062 2489 
C 1062 2649 934 2752 800 2752 
C 672 2752 538 2649 538 2489 
C 538 2329 666 2227 800 2227 
C 928 2227 1062 2329 1062 2489 
z
M 1062 262 
C 1062 422 934 524 800 524 
C 672 524 538 422 538 262 
C 538 102 666 0 800 0 
C 928 0 1062 102 1062 262 
z
" transform="scale(0.015625)"/>
     </defs>
     <use xlink:href="#CMR17-44" transform="scale(0.996264)"/>
     <use xlink:href="#CMR17-65" transform="translate(70.393556 0) scale(0.996264)"/>
     <use xlink:href="#CMR17-70" transform="translate(110.879216 0) scale(0.996264)"/>
     <use xlink:href="#CMR17-6f" transform="translate(164.377025 0) scale(0.996264)"/>
     <use xlink:href="#CMR17-73" transform="translate(210.067502 0) scale(0.996264)"/>
     <use xlink:href="#CMR17-69" transform="translate(245.86884 0) scale(0.996264)"/>
     <use xlink:href="#CMR17-74" transform="translate(270.739898 0) scale(0.996264)"/>
     <use xlink:href="#CMR17-69" transform="translate(306.020666 0) scale(0.996264)"/>
     <use xlink:href="#CMR17-6f" transform="translate(330.891724 0) scale(0.996264)"/>
     <use xlink:href="#CMR17-6e" transform="translate(376.582202 0) scale(0.996264)"/>
     <use xlink:href="#CMR17-6f" transform="translate(457.553538 0) scale(0.996264)"/>
     <use xlink:href="#CMR17-66" transform="translate(503.244015 0) scale(0.996264)"/>
     <use xlink:href="#CMR17-64" transform="translate(560.793494 0) scale(0.996264)"/>
     <use xlink:href="#CMR17-69" transform="translate(611.688863 0) scale(0.996264)"/>
     <use xlink:href="#CMR17-b" transform="translate(636.559922 0) scale(0.996264)"/>
     <use xlink:href="#CMR17-65" transform="translate(688.904599 0) scale(0.996264)"/>
     <use xlink:href="#CMR17-72" transform="translate(729.39026 0) scale(0.996264)"/>
     <use xlink:href="#CMR17-65" transform="translate(764.671027 0) scale(0.996264)"/>
     <use xlink:href="#CMR17-6e" transform="translate(805.156688 0) scale(0.996264)"/>
     <use xlink:href="#CMR17-74" transform="translate(853.449604 0) scale(0.996264)"/>
     <use xlink:href="#CMR17-6d" transform="translate(918.806338 0) scale(0.996264)"/>
     <use xlink:href="#CMR17-69" transform="translate(995.725928 0) scale(0.996264)"/>
     <use xlink:href="#CMR17-78" transform="translate(1020.596986 0) scale(0.996264)"/>
     <use xlink:href="#CMR17-74" transform="translate(1068.889902 0) scale(0.996264)"/>
     <use xlink:href="#CMR17-75" transform="translate(1104.17067 0) scale(0.996264)"/>
     <use xlink:href="#CMR17-72" transform="translate(1155.06604 0) scale(0.996264)"/>
     <use xlink:href="#CMR17-65" transform="translate(1190.346807 0) scale(0.996264)"/>
     <use xlink:href="#CMR17-73" transform="translate(1230.832468 0) scale(0.996264)"/>
     <use xlink:href="#CMR17-6f" transform="translate(1296.709772 0) scale(0.996264)"/>
     <use xlink:href="#CMR17-66" transform="translate(1342.400249 0) scale(0.996264)"/>
     <use xlink:href="#CMR17-53" transform="translate(1399.949728 0) scale(0.996264)"/>
     <use xlink:href="#CMR17-6b" transform="translate(1450.845097 0) scale(0.996264)"/>
     <use xlink:href="#CMR17-31" transform="translate(1499.138013 0) scale(0.996264)"/>
     <use xlink:href="#CMR17-30" transform="translate(1544.82849 0) scale(0.996264)"/>
     <use xlink:href="#CMR17-30" transform="translate(1590.518968 0) scale(0.996264)"/>
     <use xlink:href="#CMR17-3a" transform="translate(1636.209445 0) scale(0.996264)"/>
     <use xlink:href="#CMR17-44" transform="translate(1661.080503 0) scale(0.996264)"/>
     <use xlink:href="#CMR17-70" transform="translate(1731.474059 0) scale(0.996264)"/>
     <use xlink:href="#CMR17-74" transform="translate(1782.369429 0) scale(0.996264)"/>
     <use xlink:href="#CMR17-31" transform="translate(1817.650197 0) scale(0.996264)"/>
     <use xlink:href="#CMR17-30" transform="translate(1863.340674 0) scale(0.996264)"/>
    </g>
   </g>
   <g id="legend_1">
    <g id="patch_7">
     <path d="M 333.378658 302.584 
L 407.72 302.584 
Q 409.72 302.584 409.72 300.584 
L 409.72 204.023752 
Q 409.72 202.023752 407.72 202.023752 
L 333.378658 202.023752 
Q 331.378658 202.023752 331.378658 204.023752 
L 331.378658 300.584 
Q 331.378658 302.584 333.378658 302.584 
z
" style="fill: #ffffff; opacity: 0.8; stroke: #cccccc; stroke-linejoin: miter"/>
    </g>
    <g id="line2d_23">
     <path d="M 335.378658 209.523752 
L 345.378658 209.523752 
L 355.378658 209.523752 
" style="fill: none; stroke: #ffff00; stroke-width: 1.5; stroke-linecap: square"/>
    </g>
    <g id="text_17">
     <!-- 100:0 mix -->
     <g transform="translate(363.378658 213.023752) scale(0.1 -0.1)">
      <use xlink:href="#CMR17-31" transform="scale(0.996264)"/>
      <use xlink:href="#CMR17-30" transform="translate(45.690477 0) scale(0.996264)"/>
      <use xlink:href="#CMR17-30" transform="translate(91.380954 0) scale(0.996264)"/>
      <use xlink:href="#CMR17-3a" transform="translate(137.071431 0) scale(0.996264)"/>
      <use xlink:href="#CMR17-30" transform="translate(161.94249 0) scale(0.996264)"/>
      <use xlink:href="#CMR17-6d" transform="translate(237.708933 0) scale(0.996264)"/>
      <use xlink:href="#CMR17-69" transform="translate(314.628523 0) scale(0.996264)"/>
      <use xlink:href="#CMR17-78" transform="translate(339.499582 0) scale(0.996264)"/>
     </g>
    </g>
    <g id="line2d_24">
     <path d="M 335.378658 223.46093 
L 345.378658 223.46093 
L 355.378658 223.46093 
" style="fill: none; stroke: #ffa500; stroke-width: 1.5; stroke-linecap: square"/>
    </g>
    <g id="text_18">
     <!-- 90:10 mix -->
     <g transform="translate(363.378658 226.96093) scale(0.1 -0.1)">
      <defs>
       <path id="CMR17-39" d="M 2253 1871 
C 2253 448 1670 25 1190 25 
C 1043 25 685 43 538 281 
C 704 256 826 345 826 505 
C 826 678 685 736 595 736 
C 538 736 365 710 365 492 
C 365 68 742 -128 1203 -128 
C 1939 -128 2688 665 2688 2090 
C 2688 3857 1971 4224 1485 4224 
C 851 4224 243 3664 243 2800 
C 243 2000 762 1408 1414 1408 
C 1952 1408 2189 1910 2253 2122 
L 2253 1871 
z
M 1427 1510 
C 1254 1510 1011 1542 813 1929 
C 678 2181 678 2477 678 2793 
C 678 3174 678 3438 858 3722 
C 947 3857 1114 4076 1485 4076 
C 2240 4076 2240 2909 2240 2651 
C 2240 2193 2035 1510 1427 1510 
z
" transform="scale(0.015625)"/>
      </defs>
      <use xlink:href="#CMR17-39" transform="scale(0.996264)"/>
      <use xlink:href="#CMR17-30" transform="translate(45.690477 0) scale(0.996264)"/>
      <use xlink:href="#CMR17-3a" transform="translate(91.380954 0) scale(0.996264)"/>
      <use xlink:href="#CMR17-31" transform="translate(116.252013 0) scale(0.996264)"/>
      <use xlink:href="#CMR17-30" transform="translate(161.94249 0) scale(0.996264)"/>
      <use xlink:href="#CMR17-6d" transform="translate(237.708933 0) scale(0.996264)"/>
      <use xlink:href="#CMR17-69" transform="translate(314.628523 0) scale(0.996264)"/>
      <use xlink:href="#CMR17-78" transform="translate(339.499582 0) scale(0.996264)"/>
     </g>
    </g>
    <g id="line2d_25">
     <path d="M 335.378658 237.398108 
L 345.378658 237.398108 
L 355.378658 237.398108 
" style="fill: none; stroke: #ff0000; stroke-width: 1.5; stroke-linecap: square"/>
    </g>
    <g id="text_19">
     <!-- 70:30 mix -->
     <g transform="translate(363.378658 240.898108) scale(0.1 -0.1)">
      <use xlink:href="#CMR17-37" transform="scale(0.996264)"/>
      <use xlink:href="#CMR17-30" transform="translate(45.690477 0) scale(0.996264)"/>
      <use xlink:href="#CMR17-3a" transform="translate(91.380954 0) scale(0.996264)"/>
      <use xlink:href="#CMR17-33" transform="translate(116.252013 0) scale(0.996264)"/>
      <use xlink:href="#CMR17-30" transform="translate(161.94249 0) scale(0.996264)"/>
      <use xlink:href="#CMR17-6d" transform="translate(237.708933 0) scale(0.996264)"/>
      <use xlink:href="#CMR17-69" transform="translate(314.628523 0) scale(0.996264)"/>
      <use xlink:href="#CMR17-78" transform="translate(339.499582 0) scale(0.996264)"/>
     </g>
    </g>
    <g id="line2d_26">
     <path d="M 335.378658 251.335287 
L 345.378658 251.335287 
L 355.378658 251.335287 
" style="fill: none; stroke: #800080; stroke-width: 1.5; stroke-linecap: square"/>
    </g>
    <g id="text_20">
     <!-- 50:50 mix -->
     <g transform="translate(363.378658 254.835287) scale(0.1 -0.1)">
      <use xlink:href="#CMR17-35" transform="scale(0.996264)"/>
      <use xlink:href="#CMR17-30" transform="translate(45.690477 0) scale(0.996264)"/>
      <use xlink:href="#CMR17-3a" transform="translate(91.380954 0) scale(0.996264)"/>
      <use xlink:href="#CMR17-35" transform="translate(116.252013 0) scale(0.996264)"/>
      <use xlink:href="#CMR17-30" transform="translate(161.94249 0) scale(0.996264)"/>
      <use xlink:href="#CMR17-6d" transform="translate(237.708933 0) scale(0.996264)"/>
      <use xlink:href="#CMR17-69" transform="translate(314.628523 0) scale(0.996264)"/>
      <use xlink:href="#CMR17-78" transform="translate(339.499582 0) scale(0.996264)"/>
     </g>
    </g>
    <g id="line2d_27">
     <path d="M 335.378658 265.272465 
L 345.378658 265.272465 
L 355.378658 265.272465 
" style="fill: none; stroke: #add8e6; stroke-width: 1.5; stroke-linecap: square"/>
    </g>
    <g id="text_21">
     <!-- 30:70 mix -->
     <g transform="translate(363.378658 268.772465) scale(0.1 -0.1)">
      <use xlink:href="#CMR17-33" transform="scale(0.996264)"/>
      <use xlink:href="#CMR17-30" transform="translate(45.690477 0) scale(0.996264)"/>
      <use xlink:href="#CMR17-3a" transform="translate(91.380954 0) scale(0.996264)"/>
      <use xlink:href="#CMR17-37" transform="translate(116.252013 0) scale(0.996264)"/>
      <use xlink:href="#CMR17-30" transform="translate(161.94249 0) scale(0.996264)"/>
      <use xlink:href="#CMR17-6d" transform="translate(237.708933 0) scale(0.996264)"/>
      <use xlink:href="#CMR17-69" transform="translate(314.628523 0) scale(0.996264)"/>
      <use xlink:href="#CMR17-78" transform="translate(339.499582 0) scale(0.996264)"/>
     </g>
    </g>
    <g id="line2d_28">
     <path d="M 335.378658 279.209643 
L 345.378658 279.209643 
L 355.378658 279.209643 
" style="fill: none; stroke: #0000ff; stroke-width: 1.5; stroke-linecap: square"/>
    </g>
    <g id="text_22">
     <!-- 10:90 mix -->
     <g transform="translate(363.378658 282.709643) scale(0.1 -0.1)">
      <use xlink:href="#CMR17-31" transform="scale(0.996264)"/>
      <use xlink:href="#CMR17-30" transform="translate(45.690477 0) scale(0.996264)"/>
      <use xlink:href="#CMR17-3a" transform="translate(91.380954 0) scale(0.996264)"/>
      <use xlink:href="#CMR17-39" transform="translate(116.252013 0) scale(0.996264)"/>
      <use xlink:href="#CMR17-30" transform="translate(161.94249 0) scale(0.996264)"/>
      <use xlink:href="#CMR17-6d" transform="translate(237.708933 0) scale(0.996264)"/>
      <use xlink:href="#CMR17-69" transform="translate(314.628523 0) scale(0.996264)"/>
      <use xlink:href="#CMR17-78" transform="translate(339.499582 0) scale(0.996264)"/>
     </g>
    </g>
    <g id="line2d_29">
     <path d="M 335.378658 293.146822 
L 345.378658 293.146822 
L 355.378658 293.146822 
" style="fill: none; stroke: #008000; stroke-width: 1.5; stroke-linecap: square"/>
    </g>
    <g id="text_23">
     <!-- 0:100 mix -->
     <g transform="translate(363.378658 296.646822) scale(0.1 -0.1)">
      <use xlink:href="#CMR17-30" transform="scale(0.996264)"/>
      <use xlink:href="#CMR17-3a" transform="translate(45.690477 0) scale(0.996264)"/>
      <use xlink:href="#CMR17-31" transform="translate(70.561536 0) scale(0.996264)"/>
      <use xlink:href="#CMR17-30" transform="translate(116.252013 0) scale(0.996264)"/>
      <use xlink:href="#CMR17-30" transform="translate(161.94249 0) scale(0.996264)"/>
      <use xlink:href="#CMR17-6d" transform="translate(237.708933 0) scale(0.996264)"/>
      <use xlink:href="#CMR17-69" transform="translate(314.628523 0) scale(0.996264)"/>
      <use xlink:href="#CMR17-78" transform="translate(339.499582 0) scale(0.996264)"/>
     </g>
    </g>
   </g>
  </g>
 </g>
 <defs>
  <clipPath id="p03ad2b14a4">
   <rect x="57.6" y="41.472" width="357.12" height="266.112"/>
  </clipPath>
 </defs>
</svg>
